<svg width="25" height="24" viewBox="0 0 25 24" fill="none" xmlns="http://www.w3.org/2000/svg">
<g clip-path="url(#clip0_98_437)">
<path d="M12.895 15C14.5519 15 15.895 13.6569 15.895 12C15.895 10.3431 14.5519 9 12.895 9C11.2382 9 9.89502 10.3431 9.89502 12C9.89502 13.6569 11.2382 15 12.895 15Z" stroke="#1127EF" stroke-width="2" stroke-linecap="round" stroke-linejoin="round"/>
<path d="M20.295 15C20.1619 15.3016 20.1222 15.6362 20.181 15.9606C20.2398 16.285 20.3945 16.5843 20.625 16.82L20.685 16.88C20.871 17.0657 21.0185 17.2863 21.1191 17.5291C21.2198 17.7719 21.2716 18.0322 21.2716 18.295C21.2716 18.5578 21.2198 18.8181 21.1191 19.0609C21.0185 19.3037 20.871 19.5243 20.685 19.71C20.4993 19.896 20.2787 20.0435 20.0359 20.1441C19.7931 20.2448 19.5329 20.2966 19.27 20.2966C19.0072 20.2966 18.7469 20.2448 18.5041 20.1441C18.2613 20.0435 18.0408 19.896 17.855 19.71L17.795 19.65C17.5593 19.4195 17.26 19.2648 16.9356 19.206C16.6112 19.1472 16.2766 19.1869 15.975 19.32C15.6793 19.4468 15.427 19.6572 15.2493 19.9255C15.0717 20.1938 14.9763 20.5082 14.975 20.83V21C14.975 21.5304 14.7643 22.0391 14.3892 22.4142C14.0142 22.7893 13.5055 23 12.975 23C12.4446 23 11.9359 22.7893 11.5608 22.4142C11.1857 22.0391 10.975 21.5304 10.975 21V20.91C10.9673 20.579 10.8601 20.258 10.6675 19.9887C10.4749 19.7194 10.2058 19.5143 9.89502 19.4C9.5934 19.2669 9.25883 19.2272 8.93443 19.286C8.61004 19.3448 8.3107 19.4995 8.07502 19.73L8.01502 19.79C7.82927 19.976 7.6087 20.1235 7.3659 20.2241C7.1231 20.3248 6.86285 20.3766 6.60002 20.3766C6.33719 20.3766 6.07694 20.3248 5.83414 20.2241C5.59134 20.1235 5.37077 19.976 5.18502 19.79C4.99907 19.6043 4.85155 19.3837 4.7509 19.1409C4.65025 18.8981 4.59845 18.6378 4.59845 18.375C4.59845 18.1122 4.65025 17.8519 4.7509 17.6091C4.85155 17.3663 4.99907 17.1457 5.18502 16.96L5.24502 16.9C5.47556 16.6643 5.63021 16.365 5.68902 16.0406C5.74784 15.7162 5.70813 15.3816 5.57502 15.08C5.44826 14.7842 5.23777 14.532 4.96948 14.3543C4.70119 14.1766 4.38681 14.0813 4.06502 14.08H3.89502C3.36459 14.08 2.85588 13.8693 2.48081 13.4942C2.10573 13.1191 1.89502 12.6104 1.89502 12.08C1.89502 11.5496 2.10573 11.0409 2.48081 10.6658C2.85588 10.2907 3.36459 10.08 3.89502 10.08H3.98502C4.31601 10.0723 4.63702 9.96512 4.90632 9.77251C5.17561 9.5799 5.38074 9.31074 5.49502 9C5.62813 8.69838 5.66784 8.36381 5.60902 8.03941C5.55021 7.71502 5.39556 7.41568 5.16502 7.18L5.10502 7.12C4.91907 6.93425 4.77155 6.71368 4.6709 6.47088C4.57025 6.22808 4.51845 5.96783 4.51845 5.705C4.51845 5.44217 4.57025 5.18192 4.6709 4.93912C4.77155 4.69632 4.91907 4.47575 5.10502 4.29C5.29077 4.10405 5.51134 3.95653 5.75414 3.85588C5.99694 3.75523 6.25719 3.70343 6.52002 3.70343C6.78285 3.70343 7.0431 3.75523 7.2859 3.85588C7.5287 3.95653 7.74927 4.10405 7.93502 4.29L7.99502 4.35C8.2307 4.58054 8.53004 4.73519 8.85443 4.794C9.17883 4.85282 9.5134 4.81312 9.81502 4.68H9.89502C10.1908 4.55324 10.443 4.34276 10.6207 4.07447C10.7984 3.80618 10.8937 3.49179 10.895 3.17V3C10.895 2.46957 11.1057 1.96086 11.4808 1.58579C11.8559 1.21071 12.3646 1 12.895 1C13.4255 1 13.9342 1.21071 14.3092 1.58579C14.6843 1.96086 14.895 2.46957 14.895 3V3.09C14.8963 3.41179 14.9917 3.72618 15.1693 3.99447C15.347 4.26276 15.5993 4.47324 15.895 4.6C16.1966 4.73312 16.5312 4.77282 16.8556 4.714C17.18 4.65519 17.4793 4.50054 17.715 4.27L17.775 4.21C17.9608 4.02405 18.1813 3.87653 18.4241 3.77588C18.6669 3.67523 18.9272 3.62343 19.19 3.62343C19.4529 3.62343 19.7131 3.67523 19.9559 3.77588C20.1987 3.87653 20.4193 4.02405 20.605 4.21C20.791 4.39575 20.9385 4.61632 21.0391 4.85912C21.1398 5.10192 21.1916 5.36217 21.1916 5.625C21.1916 5.88783 21.1398 6.14808 21.0391 6.39088C20.9385 6.63368 20.791 6.85425 20.605 7.04L20.545 7.1C20.3145 7.33568 20.1598 7.63502 20.101 7.95941C20.0422 8.28381 20.0819 8.61838 20.215 8.92V9C20.3418 9.29577 20.5523 9.54802 20.8206 9.72569C21.0888 9.90337 21.4032 9.99872 21.725 10H21.895C22.4255 10 22.9342 10.2107 23.3092 10.5858C23.6843 10.9609 23.895 11.4696 23.895 12C23.895 12.5304 23.6843 13.0391 23.3092 13.4142C22.9342 13.7893 22.4255 14 21.895 14H21.805C21.4832 14.0013 21.1688 14.0966 20.9006 14.2743C20.6323 14.452 20.4218 14.7042 20.295 15V15Z" stroke="#1127EF" stroke-width="2" stroke-linecap="round" stroke-linejoin="round"/>
</g>
<defs>
<clipPath id="clip0_98_437">
<rect width="24" height="24" fill="white" transform="translate(0.89502)"/>
</clipPath>
</defs>
</svg>
